<?xml version="1.0" standalone="no"?>
<!DOCTYPE svg PUBLIC "-//W3C//DTD SVG 20010904//EN"
 "http://www.w3.org/TR/2001/REC-SVG-20010904/DTD/svg10.dtd">
<svg version="1.0" xmlns="http://www.w3.org/2000/svg"
 width="300.000000pt" height="292.000000pt" viewBox="0 0 300.000000 292.000000"
 preserveAspectRatio="xMidYMid meet">
<metadata>
Created by potrace 1.10, written by Peter Selinger 2001-2011
</metadata>
<g transform="translate(0.000000,292.000000) scale(0.100000,-0.100000)"
fill="#000000" stroke="none">
<path d="M1316 2910 c-373 -47 -732 -238 -964 -514 -248 -294 -366 -632 -348
-1001 31 -672 510 -1218 1199 -1367 148 -32 446 -32 594 0 218 47 418 134 590
255 98 69 246 211 314 302 396 523 398 1211 6 1741 -69 93 -216 236 -315 307
-170 122 -415 226 -617 262 -105 19 -360 27 -459 15z m476 -119 c551 -118 967
-529 1084 -1071 26 -120 26 -401 1 -518 -105 -479 -439 -858 -898 -1020 -171
-60 -274 -77 -479 -77 -157 0 -201 4 -289 23 -509 114 -887 447 -1045 923
-156 470 -26 1002 333 1359 212 211 480 345 786 395 126 20 378 13 507 -14z"/>
</g>
</svg>
