<?xml version="1.0" standalone="no"?>
<!DOCTYPE svg PUBLIC "-//W3C//DTD SVG 20010904//EN"
 "http://www.w3.org/TR/2001/REC-SVG-20010904/DTD/svg10.dtd">
<svg version="1.0" xmlns="http://www.w3.org/2000/svg"
 width="300.000000pt" height="291.000000pt" viewBox="0 0 300.000000 291.000000"
 preserveAspectRatio="xMidYMid meet">
<metadata>
Created by potrace 1.10, written by Peter Selinger 2001-2011
</metadata>
<g transform="translate(0.000000,291.000000) scale(0.100000,-0.100000)"
fill="#000000" stroke="none">
<path d="M750 2354 c-410 -305 -745 -560 -744 -566 1 -7 125 -402 276 -878
152 -476 279 -875 283 -887 l6 -23 929 0 928 0 31 98 c17 53 145 457 285 897
198 620 253 802 243 811 -16 15 -1488 1104 -1490 1103 -1 0 -337 -250 -747
-555z m1448 -84 c375 -278 682 -509 682 -515 0 -5 -118 -380 -262 -833 l-262
-822 -856 0 -856 0 -262 823 c-144 453 -262 827 -262 833 1 15 1363 1023 1381
1021 8 -1 322 -229 697 -507z"/>
</g>
</svg>
