<?xml version="1.0" standalone="no"?>
<!DOCTYPE svg PUBLIC "-//W3C//DTD SVG 20010904//EN"
 "http://www.w3.org/TR/2001/REC-SVG-20010904/DTD/svg10.dtd">
<svg version="1.0" xmlns="http://www.w3.org/2000/svg"
 width="300.000000pt" height="292.000000pt" viewBox="0 0 300.000000 292.000000"
 preserveAspectRatio="xMidYMid meet">
<metadata>
Created by potrace 1.10, written by Peter Selinger 2001-2011
</metadata>
<g transform="translate(0.000000,292.000000) scale(0.100000,-0.100000)"
fill="#000000" stroke="none">
<path d="M1325 2368 c-92 -293 -172 -541 -177 -550 -8 -17 -48 -18 -572 -20
l-564 -3 450 -334 c248 -184 452 -341 455 -348 3 -7 -72 -256 -167 -554 -94
-297 -170 -543 -168 -545 3 -2 210 149 461 336 l457 339 457 -339 c251 -187
458 -338 461 -336 2 3 -74 248 -168 546 -95 297 -170 547 -167 553 3 7 208
164 455 348 l451 334 -564 3 c-525 2 -565 3 -573 20 -5 9 -84 257 -177 550
-93 292 -171 532 -175 532 -3 0 -82 -240 -175 -532z m320 -211 l141 -442 463
-5 463 -5 -371 -275 c-204 -151 -371 -280 -371 -285 0 -6 63 -208 139 -450 77
-242 139 -440 138 -441 -1 -2 -168 121 -372 272 -203 151 -372 274 -375 274
-3 0 -172 -123 -375 -274 -203 -151 -371 -274 -372 -273 -1 2 61 200 138 442
77 242 138 445 137 451 -2 7 -169 135 -371 285 l-368 274 463 5 463 5 140 442
c77 244 142 443 145 443 3 0 68 -199 145 -443z"/>
</g>
</svg>
